<?xml version="1.0" encoding="UTF-8" standalone="no"?><!DOCTYPE svg PUBLIC "-//W3C//DTD SVG 1.1//EN" "http://www.w3.org/Graphics/SVG/1.1/DTD/svg11.dtd"><svg width="100%" height="100%" viewBox="0 0 240 185" version="1.1" xmlns="http://www.w3.org/2000/svg" xmlns:xlink="http://www.w3.org/1999/xlink" xml:space="preserve" xmlns:serif="http://www.serif.com/" style="fill-rule:evenodd;clip-rule:evenodd;stroke-linejoin:round;stroke-miterlimit:2;"><rect id="ArtBoard1" x="0" y="0" width="239.837" height="184.331" style="fill:none;"/><g id="ArtBoard11" serif:id="ArtBoard1"><g><path d="M99.451,83.761c9.606,12.054 27.553,14.083 39.539,4.531c3.375,-2.69 5.831,-6.11 7.254,-9.835c2.048,15.713 -4.86,31.354 -19.118,42.717c-2.342,1.867 3.916,9.719 6.258,7.853c25.348,-20.201 31.422,-53.424 10.014,-80.288c-9.606,-12.054 -27.554,-14.083 -39.54,-4.531c-3.375,2.69 -5.83,6.11 -7.254,9.835c-2.047,-15.713 4.86,-31.354 19.188,-42.772c2.273,-1.811 -4.054,-9.609 -6.258,-7.852c-25.418,20.255 -31.492,53.478 -10.083,80.342Zm7.852,-6.258c-6.258,-7.852 -4.985,-19.116 2.868,-25.374c7.852,-6.258 19.116,-4.985 25.374,2.868c6.258,7.852 4.985,19.116 -2.868,25.374c-7.852,6.258 -19.116,4.985 -25.374,-2.868Zm7.302,-5.818c2.964,3.719 8.534,4.349 12.253,1.384c3.72,-2.964 4.295,-8.602 1.385,-12.253c-2.964,-3.72 -8.533,-4.35 -12.253,-1.385c-3.72,2.964 -4.349,8.534 -1.385,12.254Z" style="fill:#83d3ff;fill-rule:nonzero;"/><path d="M91.63,28.863c-20.509,16.345 -23.96,46.882 -7.709,67.275c4.577,5.743 10.396,9.92 16.734,12.342c-26.735,3.484 -53.348,-8.268 -72.681,-32.529c-3.176,-3.985 -16.537,6.663 -13.361,10.648c34.371,43.129 90.898,53.464 136.606,17.039c20.51,-16.345 23.961,-46.882 7.71,-67.275c-4.577,-5.743 -10.397,-9.92 -16.735,-12.343c26.735,-3.483 53.347,8.269 72.774,32.647c3.083,3.868 16.35,-6.897 13.361,-10.648c-34.464,-43.247 -90.991,-53.581 -136.699,-17.156Zm10.648,13.361c13.361,-10.647 32.525,-8.481 43.173,4.88c10.647,13.36 8.481,32.525 -4.88,43.172c-13.36,10.648 -32.525,8.482 -43.173,-4.879c-10.647,-13.361 -8.481,-32.525 4.88,-43.173Zm9.9,12.424c-6.329,5.043 -7.399,14.52 -2.356,20.848c5.044,6.329 14.637,7.307 20.849,2.357c6.329,-5.044 7.4,-14.52 2.356,-20.849c-5.043,-6.329 -14.52,-7.4 -20.849,-2.356Z" style="fill:#00a5ff;fill-rule:nonzero;"/><path d="M0.613,168.061c0,-2.134 0.315,-4.139 0.944,-6.013c0.63,-1.875 1.54,-3.503 2.73,-4.884c1.19,-1.382 2.654,-2.47 4.392,-3.264c1.737,-0.793 3.701,-1.19 5.89,-1.19c1.724,0 3.215,0.226 4.474,0.677c1.258,0.452 2.319,1.013 3.181,1.683c0.862,0.671 1.566,1.403 2.113,2.196c0.548,0.794 0.965,1.539 1.252,2.237c0.288,0.698 0.486,1.3 0.595,1.806c0.11,0.506 0.165,0.787 0.165,0.841l-1.806,0c-0.192,-1.231 -0.589,-2.332 -1.191,-3.304c-0.602,-0.971 -1.354,-1.799 -2.257,-2.483c-0.903,-0.684 -1.909,-1.204 -3.017,-1.56c-1.108,-0.355 -2.278,-0.533 -3.509,-0.533c-1.916,-0 -3.626,0.369 -5.131,1.108c-1.505,0.739 -2.777,1.731 -3.817,2.976c-1.04,1.245 -1.833,2.702 -2.381,4.371c-0.547,1.669 -0.821,3.448 -0.821,5.336c0,1.888 0.274,3.667 0.821,5.336c0.548,1.669 1.341,3.126 2.381,4.371c1.04,1.245 2.312,2.237 3.817,2.976c1.505,0.739 3.215,1.108 5.131,1.108c1.423,0 2.757,-0.294 4.002,-0.882c1.245,-0.589 2.332,-1.369 3.263,-2.34c0.93,-0.971 1.676,-2.093 2.237,-3.366c0.561,-1.272 0.882,-2.592 0.964,-3.96l1.806,-0c-0.164,1.751 -0.595,3.365 -1.293,4.843c-0.697,1.477 -1.587,2.757 -2.668,3.838c-1.08,1.08 -2.332,1.922 -3.755,2.524c-1.423,0.602 -2.942,0.903 -4.556,0.903c-2.189,-0 -4.153,-0.397 -5.89,-1.191c-1.738,-0.793 -3.202,-1.881 -4.392,-3.263c-1.19,-1.381 -2.1,-3.01 -2.73,-4.884c-0.629,-1.874 -0.944,-3.879 -0.944,-6.013Z" style="fill:#00a5ff;fill-rule:nonzero;"/><path d="M65.382,168.061c0,2.134 -0.314,4.139 -0.944,6.013c-0.629,1.874 -1.539,3.503 -2.729,4.884c-1.19,1.382 -2.647,2.47 -4.371,3.263c-1.724,0.794 -3.681,1.191 -5.87,1.191c-2.189,-0 -4.152,-0.397 -5.89,-1.191c-1.737,-0.793 -3.201,-1.881 -4.392,-3.263c-1.19,-1.381 -2.1,-3.01 -2.729,-4.884c-0.629,-1.874 -0.944,-3.879 -0.944,-6.013c-0,-2.134 0.315,-4.139 0.944,-6.013c0.629,-1.875 1.539,-3.503 2.729,-4.884c1.191,-1.382 2.655,-2.47 4.392,-3.264c1.738,-0.793 3.701,-1.19 5.89,-1.19c2.189,0 4.146,0.397 5.87,1.19c1.724,0.794 3.181,1.882 4.371,3.264c1.19,1.381 2.1,3.009 2.729,4.884c0.63,1.874 0.944,3.879 0.944,6.013Zm-26.063,-0c-0,1.888 0.274,3.667 0.821,5.336c0.547,1.669 1.341,3.126 2.38,4.371c1.04,1.245 2.313,2.237 3.818,2.976c1.505,0.739 3.215,1.108 5.13,1.108c1.916,0 3.619,-0.369 5.11,-1.108c1.492,-0.739 2.757,-1.731 3.797,-2.976c1.04,-1.245 1.833,-2.702 2.381,-4.371c0.547,-1.669 0.821,-3.448 0.821,-5.336c-0,-1.888 -0.274,-3.667 -0.821,-5.336c-0.548,-1.669 -1.341,-3.126 -2.381,-4.371c-1.04,-1.245 -2.305,-2.237 -3.797,-2.976c-1.491,-0.739 -3.194,-1.108 -5.11,-1.108c-1.915,-0 -3.625,0.369 -5.13,1.108c-1.505,0.739 -2.778,1.731 -3.818,2.976c-1.039,1.245 -1.833,2.702 -2.38,4.371c-0.547,1.669 -0.821,3.448 -0.821,5.336Z" style="fill:#00a5ff;fill-rule:nonzero;"/><path d="M77.45,153.408l2.586,-0l11.451,27.295l0.082,-0l11.329,-27.295l2.585,-0l0,29.306l-1.805,0l-0,-27.09l-0.083,0l-11.164,27.09l-1.806,0l-11.287,-27.09l-0.082,0l-0,27.09l-1.806,0l-0,-29.306Z" style="fill:#00a5ff;fill-rule:nonzero;"/><path d="M118.864,153.408l12.478,-0c0.821,-0 1.731,0.096 2.729,0.287c0.999,0.192 1.929,0.582 2.791,1.17c0.862,0.588 1.581,1.423 2.155,2.504c0.575,1.081 0.862,2.497 0.862,4.248c0,2.572 -0.793,4.556 -2.38,5.951c-1.587,1.396 -3.859,2.094 -6.814,2.094l-10.015,-0l0,13.052l-1.806,0l0,-29.306Zm1.806,14.694l10.302,0c1.314,0 2.429,-0.198 3.346,-0.595c0.916,-0.397 1.648,-0.91 2.196,-1.539c0.547,-0.63 0.944,-1.327 1.19,-2.094c0.246,-0.766 0.369,-1.532 0.369,-2.298c0,-0.547 -0.082,-1.197 -0.246,-1.95c-0.164,-0.752 -0.493,-1.477 -0.985,-2.175c-0.493,-0.698 -1.184,-1.286 -2.073,-1.765c-0.889,-0.479 -2.073,-0.718 -3.55,-0.718l-10.549,-0l0,13.134Z" style="fill:#00a5ff;fill-rule:nonzero;"/><path d="M157.077,153.408l1.97,-0l11.575,29.306l-1.929,0l-3.694,-9.399l-14.038,-0l-3.735,9.399l-1.929,0l11.78,-29.306Zm7.347,18.347l-6.28,-16.582l-0.082,-0l-6.526,16.582l12.888,0Z" style="fill:#00a5ff;fill-rule:nonzero;"/><path d="M180.924,153.408l2.258,-0l18.511,26.884l0.082,0l0,-26.884l1.806,-0l0,29.306l-2.134,0l-18.635,-27.09l-0.082,0l0,27.09l-1.806,0l0,-29.306Z" style="fill:#00a5ff;fill-rule:nonzero;"/><path d="M236.787,153.408l2.011,-0l-11.78,17.034l-0,12.272l-1.806,0l-0,-12.272l-11.698,-17.034l2.052,-0l10.59,15.515l10.631,-15.515Z" style="fill:#00a5ff;fill-rule:nonzero;"/></g></g></svg>